# xmcd CD database file
#
# Track frame offsets:
#	150
#	21597
#	43015
#	63297
#	84707
#
# Disc length: 1457 seconds
#
# Revision: 0
# Processed by: cddbd v1.5.1PL2 Copyright (c) Steve Scherf et al.
# Submitted via: CDex 1.70beta2
#
DISCID=3e05af05
DTITLE=Jeff Lorber - Edits Worth Waiting For
DYEAR=1993
DGENRE=Jazz
TTITLE0=Rain Song
TTITLE1=The Underground
TTITLE2=Yellowstone
TTITLE3=Do What It Takes
TTITLE4=Worth Waiting For
EXTD=YEAR: 1993
EXTT0=
EXTT1=
EXTT2=
EXTT3=
EXTT4=
PLAYORDER=
